<?xml version="1.0" encoding="utf-8"?>
<!-- Generator: Adobe Illustrator 18.1.0, SVG Export Plug-In . SVG Version: 6.00 Build 0)  -->
<!DOCTYPE svg PUBLIC "-//W3C//DTD SVG 1.1//EN" "http://www.w3.org/Graphics/SVG/1.1/DTD/svg11.dtd">
<svg version="1.1" id="Layer_1" xmlns="http://www.w3.org/2000/svg" xmlns:xlink="http://www.w3.org/1999/xlink" x="0px" y="0px"
	 viewBox="0 0 48 27.5" enable-background="new 0 0 48 27.5" xml:space="preserve">
<path d="M10.8,3.4c-0.4,0-0.9,0.3-1.2,0.6l-6.5,7.7C2.9,12,2.7,12.6,2.7,13v11.5c0,0.4,0.3,0.7,0.7,0.7h32.9c0.4,0,0.9-0.3,1.2-0.6
	l6.5-8.1c0.3-0.3,0.5-0.9,0.5-1.3V4.2c0-0.4-0.3-0.7-0.7-0.7H10.8z M11.3,7.7c0.3-0.3,0.8-0.6,1.2-0.6h24.8c0.4,0,0.5,0.3,0.3,0.6
	l-2.3,2.8c-0.3,0.3-0.8,0.6-1.2,0.6H9.2c-0.4,0-0.5-0.3-0.3-0.6L11.3,7.7z M6.4,15.6c0-0.4,0.3-0.7,0.7-0.7h26
	c0.4,0,0.7,0.3,0.7,0.7v5.3c0,0.4-0.3,0.7-0.7,0.7h-26c-0.4,0-0.7-0.3-0.7-0.7V15.6z M38,18.2c-0.3,0.3-0.5,0.2-0.5-0.2v-3.6
	c0-0.4,0.2-1,0.5-1.3l2.3-2.8c0.3-0.3,0.5-0.2,0.5,0.2V14c0,0.4-0.2,1-0.5,1.3L38,18.2z"/>
</svg>
