<?xml version="1.0" encoding="utf-8"?>
<!-- Generator: Adobe Illustrator 18.1.0, SVG Export Plug-In . SVG Version: 6.00 Build 0)  -->
<!DOCTYPE svg PUBLIC "-//W3C//DTD SVG 1.1//EN" "http://www.w3.org/Graphics/SVG/1.1/DTD/svg11.dtd">
<svg version="1.1" id="Layer_1" xmlns="http://www.w3.org/2000/svg" xmlns:xlink="http://www.w3.org/1999/xlink" x="0px" y="0px"
	 viewBox="0 0 172.3 50.4" enable-background="new 0 0 172.3 50.4" xml:space="preserve">
<path d="M81,49c0,0.8,0.6,1.4,1.4,1.4h4.4c0.8,0,1.4-0.6,1.4-1.4V1.4c0-0.8-0.6-1.4-1.4-1.4h-4.4C81.6,0,81,0.6,81,1.4V49z"/>
<g>
	<path d="M77.6,49.2L63.2,28.6c3.3-0.4,6.1-1.5,8.4-3.3c3.2-2.6,5-6.4,5-10.9s-1.7-8.3-5-10.9C68.7,1.2,64.8,0,60.3,0H41.9
		c-0.8,0-1.4,0.6-1.4,1.4V49c0,0.8,0.6,1.4,1.4,1.4h4.4c0.8,0,1.4-0.6,1.4-1.4V20.5c0-0.8,0.4-0.9,0.8-0.3l20.3,29
		c0.4,0.6,1.4,1.2,2.2,1.2H77C77.7,50.4,78,49.9,77.6,49.2z M59.3,21.6c-0.6,0-1.4-0.5-1.8-1.2L49,8.4c-0.4-0.6-0.2-1.2,0.6-1.2
		h10.7c3.4,0,9,0.9,9,7.2c0,6.3-5.6,7.2-9,7.2C60.3,21.6,59.8,21.6,59.3,21.6z"/>
</g>
<g>
	<path d="M32.8,25.1c-0.3-0.2-0.6-0.4-0.8-0.6c2.6-2.5,4-6,4-10.1c0-4.5-1.7-8.3-5-10.9C28.2,1.2,24.3,0,19.8,0H1.4
		C0.6,0,0,0.6,0,1.4V49c0,0.8,0.6,1.4,1.4,1.4h20.2c4.5,0,8.4-1.2,11.2-3.5c3.2-2.6,5-6.4,5-10.9S36.1,27.7,32.8,25.1z M7.2,8.6
		c0-0.8,0.6-1.4,1.4-1.4h11.2c3.4,0,9,0.9,9,7.2c0,6.3-5.6,7.2-9,7.2H8.6c-0.8,0-1.4-0.6-1.4-1.4V8.6z M21.6,43.2h-13
		c-0.8,0-1.4-0.6-1.4-1.4V30.2c0-0.8,0.6-1.4,1.4-1.4h13c3.4,0,9,0.9,9,7.2C30.6,42.3,25,43.2,21.6,43.2z"/>
</g>
<path d="M112.7,22.4c-0.4-0.6-0.4-1.7,0.1-2.3l15.2-19.1c0.5-0.6,0.2-1.1-0.5-1.1H121c-0.8,0-1.8,0.5-2.3,1.1l-18,22.6
	c-0.5,0.6-0.9,0.5-0.9-0.3v-22c0-0.8-0.6-1.4-1.4-1.4h-4.4c-0.8,0-1.4,0.6-1.4,1.4V44c0,0.8,0.4,0.9,0.9,0.3l12.8-16
	c0.5-0.6,1.2-0.6,1.7,0.1l14.7,20.9c0.4,0.6,1.5,1.2,2.2,1.2h6c0.8,0,1.1-0.5,0.6-1.2L112.7,22.4z"/>
<path d="M153.2,22.4c-0.4-0.6-0.4-1.7,0.1-2.3l15.2-19.1c0.5-0.6,0.2-1.1-0.5-1.1h-6.4c-0.8,0-1.8,0.5-2.3,1.1l-18,22.6
	c-0.5,0.6-0.9,0.5-0.9-0.3v-22c0-0.8-0.6-1.4-1.4-1.4c-0.7,0-2,0-2.8,0h-1.7c-0.8,0-1.4,0.6-1.4,1.4V49c0,0.8,0.6,1.4,1.4,1.4h4.4
	c0.8,0,1.4-0.6,1.4-1.4V37.8c0-0.8,0.4-1.9,0.9-2.5l5.6-7c0.5-0.6,1.2-0.6,1.7,0l14.7,20.9c0.4,0.6,1.5,1.2,2.2,1.2h6
	c0.8,0,1.1-0.5,0.6-1.2L153.2,22.4z"/>
</svg>
