<?xml version="1.0" encoding="utf-8"?>
<!-- Generator: Adobe Illustrator 18.1.0, SVG Export Plug-In . SVG Version: 6.00 Build 0)  -->
<!DOCTYPE svg PUBLIC "-//W3C//DTD SVG 1.1//EN" "http://www.w3.org/Graphics/SVG/1.1/DTD/svg11.dtd">
<svg version="1.1" id="Layer_1" xmlns="http://www.w3.org/2000/svg" xmlns:xlink="http://www.w3.org/1999/xlink" x="0px" y="0px"
	 viewBox="0 0 172.3 141.7" enable-background="new 0 0 172.3 141.7" xml:space="preserve">
<path d="M67.3,95.4c-0.6,0-1.4,0.4-1.8,0.8l-9.6,11.4c-0.4,0.5-0.7,1.3-0.7,1.9v17.1c0,0.6,0.5,1.1,1.1,1.1H105
	c0.6,0,1.4-0.4,1.8-0.8l9.6-12c0.4-0.5,0.7-1.3,0.7-1.9V96.5c0-0.6-0.5-1.1-1.1-1.1H67.3z M68.1,101.7c0.4-0.5,1.2-0.8,1.8-0.8h36.6
	c0.6,0,0.8,0.4,0.4,0.8l-3.5,4.2c-0.4,0.5-1.2,0.8-1.8,0.8H64.9c-0.6,0-0.8-0.4-0.4-0.8L68.1,101.7z M60.7,113.3
	c0-0.6,0.5-1.1,1.1-1.1h38.4c0.6,0,1.1,0.5,1.1,1.1v7.8c0,0.6-0.5,1.1-1.1,1.1H61.8c-0.6,0-1.1-0.5-1.1-1.1V113.3z M107.4,117.2
	c-0.4,0.5-0.7,0.4-0.7-0.2v-5.4c0-0.6,0.3-1.5,0.7-1.9l3.4-4.1c0.4-0.5,0.7-0.3,0.7,0.3v5.2c0,0.6-0.3,1.5-0.7,1.9L107.4,117.2z"/>
<g>
	<path d="M81,63.1c0,0.8,0.6,1.4,1.4,1.4h4.4c0.8,0,1.4-0.6,1.4-1.4V15.5c0-0.8-0.6-1.4-1.4-1.4h-4.4c-0.8,0-1.4,0.6-1.4,1.4V63.1
		L81,63.1z"/>
	<path d="M59.3,35.7c-0.6,0-1.4-0.5-1.8-1.2L49,22.5c-0.4-0.6-0.2-1.2,0.6-1.2h10.7c3.4,0,9,0.9,9,7.2c0,6.3-5.6,7.2-9,7.2
		C60.3,35.7,59.8,35.7,59.3,35.7L59.3,35.7z M77.6,63.3L63.2,42.7c3.3-0.4,6.1-1.5,8.4-3.3c3.2-2.6,5-6.4,5-10.9s-1.7-8.3-5-10.9
		c-2.9-2.3-6.7-3.5-11.2-3.5H41.9c-0.8,0-1.4,0.6-1.4,1.4v47.6c0,0.8,0.6,1.4,1.4,1.4h4.4c0.8,0,1.4-0.6,1.4-1.4V34.6
		c0-0.8,0.4-0.9,0.8-0.3l20.3,29c0.4,0.6,1.4,1.2,2.2,1.2H77C77.7,64.5,78,64,77.6,63.3L77.6,63.3z"/>
	<path d="M21.6,57.3h-13c-0.8,0-1.4-0.6-1.4-1.4V44.3c0-0.8,0.6-1.4,1.4-1.4h13c3.4,0,9,0.9,9,7.2S25,57.3,21.6,57.3L21.6,57.3z
		 M7.2,22.7c0-0.8,0.6-1.4,1.4-1.4h11.2c3.4,0,9,0.9,9,7.2c0,6.3-5.6,7.2-9,7.2H8.6c-0.8,0-1.4-0.6-1.4-1.4V22.7L7.2,22.7z
		 M32.8,39.2c-0.3-0.2-0.6-0.4-0.8-0.6c2.6-2.5,4-6,4-10.1c0-4.5-1.7-8.3-5-10.9c-2.9-2.3-6.7-3.5-11.2-3.5H1.4
		c-0.8,0-1.4,0.6-1.4,1.4v47.6c0,0.8,0.6,1.4,1.4,1.4h20.2c4.5,0,8.4-1.2,11.2-3.5c3.2-2.6,5-6.4,5-10.9S36.1,41.8,32.8,39.2
		L32.8,39.2z"/>
	<g>
		<defs>
			<rect id="SVGID_1_" x="0" y="14.1" width="172.3" height="50.4"/>
		</defs>
		<clipPath id="SVGID_2_">
			<use xlink:href="#SVGID_1_"  overflow="visible"/>
		</clipPath>
		<path clip-path="url(#SVGID_2_)" d="M112.7,36.5c-0.4-0.6-0.4-1.7,0.1-2.3l15.2-19.1c0.5-0.6,0.2-1.1-0.5-1.1H121
			c-0.8,0-1.8,0.5-2.3,1.1l-18,22.6c-0.5,0.6-0.9,0.5-0.9-0.3v-22c0-0.8-0.6-1.4-1.4-1.4h-4.4c-0.8,0-1.4,0.6-1.4,1.4v42.6
			c0,0.8,0.4,0.9,0.9,0.3l12.8-16c0.5-0.6,1.3-0.6,1.7,0.1l14.7,20.9c0.4,0.6,1.5,1.2,2.2,1.2h6c0.8,0,1.1-0.5,0.6-1.2L112.7,36.5
			L112.7,36.5z"/>
		<path clip-path="url(#SVGID_2_)" d="M153.2,36.5c-0.4-0.6-0.4-1.7,0.1-2.3l15.2-19.1c0.5-0.6,0.2-1.1-0.5-1.1h-6.4
			c-0.8,0-1.8,0.5-2.3,1.1l-18,22.6c-0.5,0.6-0.9,0.5-0.9-0.3v-22c0-0.8-0.6-1.4-1.3-1.4c-0.7,0-2,0-2.8,0h-1.7
			c-0.8,0-1.4,0.6-1.4,1.4v47.6c0,0.8,0.6,1.4,1.4,1.4h4.4c0.8,0,1.4-0.6,1.4-1.4V51.9c0-0.8,0.4-1.9,0.9-2.5l5.6-7
			c0.5-0.6,1.2-0.6,1.7,0l14.7,20.9c0.4,0.6,1.5,1.2,2.2,1.2h6c0.8,0,1.1-0.5,0.6-1.2L153.2,36.5L153.2,36.5z"/>
	</g>
</g>
</svg>
