<?xml version="1.0" encoding="utf-8"?>
<!-- Generator: Adobe Illustrator 18.1.0, SVG Export Plug-In . SVG Version: 6.00 Build 0)  -->
<!DOCTYPE svg PUBLIC "-//W3C//DTD SVG 1.1//EN" "http://www.w3.org/Graphics/SVG/1.1/DTD/svg11.dtd">
<svg version="1.1" id="Layer_1" xmlns="http://www.w3.org/2000/svg" xmlns:xlink="http://www.w3.org/1999/xlink" x="0px" y="0px"
	 viewBox="0 0 512 512" enable-background="new 0 0 512 512" xml:space="preserve">
<path id="linkedin-square-rounded-icon" fill="#FFFFFF" d="M-1629.1,50h-312c-27.6,0-50,22.4-50,50v312c0,27.6,22.4,50,50,50h312
	c27.6,0,50-22.4,50-50V100C-1579.1,72.4-1601.5,50-1629.1,50z M-1860,393h-56.5V210.3h56.5V393z M-1888.6,186.4
	c-18.5,0-33.4-15.1-33.4-33.7c0-18.6,15-33.7,33.4-33.7c18.5,0,33.4,15.1,33.4,33.7C-1855.1,171.3-1870.1,186.4-1888.6,186.4z
	 M-1648.2,393h-56.3c0,0,0-69.6,0-95.9c0-26.3-10-41-30.8-41c-22.6,0-34.5,15.3-34.5,41c0,28.1,0,95.9,0,95.9h-54.2V210.3h54.2v24.6
	c0,0,16.3-30.2,55-30.2s66.5,23.6,66.5,72.6C-1648.2,326.3-1648.2,393-1648.2,393z"/>
<path id="vimeo-square-rounded-icon" fill="#FFFFFF" d="M-4572,50h-312c-27.6,0-50,22.4-50,50v312c0,27.6,22.4,50,50,50h312
	c27.6,0,50-22.4,50-50V100C-4522,72.4-4544.3,50-4572,50z M-4584.9,192c-1.3,28.1-20.9,66.5-58.8,115.3
	c-39.2,51-72.4,76.5-99.5,76.5c-16.8,0-31-15.5-42.7-46.6c-7.8-28.5-15.5-56.9-23.3-85.4c-8.6-31-17.9-46.6-27.8-46.6
	c-2.2,0-9.7,4.5-22.6,13.6l-13.6-17.5c14.2-12.5,28.3-25,42.1-37.5c19-16.4,33.2-25,42.7-25.9c22.4-2.2,36.3,13.2,41.4,46
	c5.6,35.4,9.5,57.5,11.7,66.1c6.5,29.4,13.6,44.1,21.4,44.1c6,0,15.1-9.5,27.2-28.6c12.1-19.1,18.5-33.6,19.4-43.6
	c1.7-16.5-4.8-24.7-19.4-24.7c-6.9,0-14,1.6-21.3,4.7c14.2-46.4,41.3-69,81.2-67.7C-4597.2,135.1-4583.2,154.4-4584.9,192z"/>
<path id="facebook-square-rounded-icon" fill="#FFFFFF" d="M-3630.1,50h-312c-27.6,0-50,22.4-50,50v312c0,27.6,22.4,50,50,50h312
	c27.6,0,50-22.4,50-50V100C-3580.1,72.4-3602.5,50-3630.1,50z M-3718.4,160.7c0,0-22.9,0-32,0c-11.3,0-13.6,4.6-13.6,16.3
	c0,9.7,0,28.2,0,28.2h45.6l-4.4,49.6h-41.2v148h-59.1V255.4h-30.7v-50.2h30.7c0,0,0-7.2,0-39.5c0-37.1,19.8-56.5,63.8-56.5
	c7.2,0,40.9,0,40.9,0V160.7z"/>
<path id="dribbble-square-rounded-icon" fill="#FFFFFF" d="M-2716.8,277.8c11.3,29.6,19.7,60.1,25,91.2c-13.5,5.2-28.2,8.2-43.5,8.2
	c-28.1,0-53.8-9.7-74.4-25.7C-2785.7,313.8-2754.9,289.2-2716.8,277.8z M-2790.1,147.9c-31.1,15.8-54.5,44.7-63,79.3
	c41-0.3,76.5-4.8,106.2-13.5C-2759.4,191.2-2773.8,169.3-2790.1,147.9z M-2726.6,254.2c-2.6-5.9-5.3-11.7-8.2-17.5
	c-34,10.7-74.6,16.1-121.7,16.2c0,1-0.2,2.1-0.2,3.1c0,29.4,10.6,56.5,28.1,77.5C-2802,293.6-2767.9,267.1-2726.6,254.2z
	 M-2661.4,160.1c-20.5-15.8-46.1-25.3-73.9-25.3c-10.3,0-20.2,1.4-29.7,3.8c16,21.5,30.2,43.7,42.7,66.5
	C-2696.5,194.1-2676.2,179.1-2661.4,160.1z M-2530.4,100v312c0,27.6-22.4,50-50,50h-312c-27.6,0-50-22.4-50-50V100
	c0-27.6,22.4-50,50-50h312C-2552.7,50-2530.4,72.4-2530.4,100z M-2588.6,256c0-81.1-65.7-146.8-146.8-146.8
	c-81.1,0-146.8,65.7-146.8,146.8c0,81.1,65.7,146.8,146.8,146.8C-2654.3,402.8-2588.6,337.1-2588.6,256z M-2710.7,227.7
	c3.3,6.8,6.4,13.7,9.4,20.5c26.4-4.5,55.4-4.3,86.9,0.9c-1.5-27.1-11.9-51.9-28.4-71.4C-2659.8,198.9-2682.5,215.5-2710.7,227.7z
	 M-2691.5,272.4c10.3,27.4,18.1,55.6,23.5,84.4c27.5-18.4,47-47.9,52.3-82C-2643.3,270-2668.6,269.2-2691.5,272.4z"/>
<path id="behance-square-rounded-icon" fill="#FFFFFF" d="M195.1,234.8h-43.5v-39.5h39c8.6,0,15.6,0.9,21.2,2.8
	c6.4,2.7,9.6,8.2,9.6,16.5c0,7.5-2.4,12.8-7.3,15.7C209.1,233.3,202.8,234.8,195.1,234.8z M359,243c-5.5-4.8-12.4-7.1-20.5-7.1
	c-8.9,0-15.8,2.5-20.7,7.6c-4.9,5-8,11.9-9.2,20.5h59.7C367.6,254.8,364.5,247.8,359,243z M213.5,267.5c-4.2-1.9-10.2-3-17.9-3
	h-44.1v47.8H195c7.8,0,13.8-1.1,18.1-3.2c7.8-3.9,11.8-11.3,11.8-22.4C224.9,277.4,221.1,271,213.5,267.5z M412,50
	c27.6,0,50,22.4,50,50v312c0,27.6-22.4,50-50,50H100c-27.6,0-50-22.4-50-50V100c0-27.6,22.4-50,50-50H412z M297.3,192.6h77.8v-18.1
	h-77.8V192.6z M262.7,289.2c0-10.3-2.3-19-7-26.2c-4.7-7.2-11.6-12.5-20.7-15.8c6-3.1,10.6-6.5,13.7-10.2c5.5-6.6,8.3-15.4,8.3-26.4
	c0-10.6-2.7-19.7-8.2-27.3c-9.1-12.4-24.6-18.8-46.4-19.1h-86.6v179.1h80.7c9.1,0,17.5-0.8,25.3-2.4c7.8-1.6,14.5-4.6,20.2-9
	c5.1-3.8,9.3-8.5,12.7-14.1C260,309.4,262.7,299.8,262.7,289.2z M403,260.5c-1.6-10.4-5.1-19.5-10.6-27.4
	c-6-8.9-13.7-15.5-22.9-19.6c-9.2-4.1-19.6-6.2-31.1-6.2c-19.4,0-35.2,6.1-47.4,18.4c-12.2,12.2-18.2,29.8-18.2,52.8
	c0,24.5,6.7,42.2,20.2,53c13.5,10.9,29,16.3,46.7,16.3c21.4,0,38-6.4,49.8-19.3c7.6-8.1,11.9-16.1,12.8-23.9H367
	c-2.1,3.9-4.4,6.9-7.1,9.1c-4.9,4.1-11.3,6.1-19.2,6.1c-7.4,0-13.8-1.7-19.1-5c-8.7-5.3-13.3-14.7-13.9-27.9h96.5
	C404.3,275.4,404,266.6,403,260.5z"/>
<path id="twitter-3-icon" fill="#FFFFFF" d="M3963.3,50h-312c-27.6,0-50,22.4-50,50v312c0,27.6,22.4,50,50,50h312
	c27.6,0,50-22.4,50-50V100C4013.3,72.4,3990.9,50,3963.3,50z M3923.2,207.1c3.6,79.1-55.4,167.2-159.8,167.2
	c-31.7,0-61.3-9.3-86.2-25.3c29.8,3.5,59.6-4.8,83.2-23.3c-24.6-0.5-45.4-16.7-52.5-39c8.8,1.7,17.5,1.2,25.4-1
	c-27-5.4-45.7-29.8-45.1-55.8c7.6,4.2,16.2,6.7,25.5,7c-25-16.7-32.1-49.8-17.4-75c27.7,34,69.1,56.4,115.9,58.7
	c-8.2-35.2,18.5-69,54.8-69c16.2,0,30.8,6.8,41,17.8c12.8-2.5,24.8-7.2,35.7-13.6c-4.2,13.1-13.1,24.1-24.7,31.1
	c11.4-1.4,22.2-4.4,32.3-8.9C3943.7,189.3,3934.2,199.2,3923.2,207.1z"/>
</svg>
