<?xml version="1.0" encoding="utf-8"?>
<!-- Generator: Adobe Illustrator 18.1.1, SVG Export Plug-In . SVG Version: 6.00 Build 0)  -->
<!DOCTYPE svg PUBLIC "-//W3C//DTD SVG 1.1//EN" "http://www.w3.org/Graphics/SVG/1.1/DTD/svg11.dtd">
<svg version="1.1" id="Layer_1" xmlns="http://www.w3.org/2000/svg" xmlns:xlink="http://www.w3.org/1999/xlink" x="0px" y="0px"
	 viewBox="0 0 720 576" enable-background="new 0 0 720 576" xml:space="preserve">
<path id="linkedin-square-rounded-icon" fill="#FFFFFF" d="M3230.1,56.2h-351c-31.1,0-56.2,25.2-56.2,56.2v351
	c0,31.1,25.2,56.2,56.2,56.2h351c31.1,0,56.2-25.2,56.2-56.2v-351C3286.3,81.5,3261.2,56.2,3230.1,56.2z M2970.2,442.1h-63.6V236.6
	h63.6V442.1z M2938.2,209.7c-20.8,0-37.6-17-37.6-37.9s16.9-37.9,37.6-37.9c20.8,0,37.6,17,37.6,37.9
	C2975.7,192.7,2958.9,209.7,2938.2,209.7z M3208.6,442.1h-63.3c0,0,0-78.3,0-107.9c0-29.6-11.2-46.1-34.7-46.1
	c-25.4,0-38.8,17.2-38.8,46.1c0,31.6,0,107.9,0,107.9h-61V236.6h61v27.7c0,0,18.3-34,61.9-34s74.8,26.6,74.8,81.7
	C3208.6,367.1,3208.6,442.1,3208.6,442.1z"/>
<path id="facebook-square-rounded-icon" fill="#FFFFFF" d="M1929.5,56.2h-351c-31,0-56.2,25.2-56.2,56.2v351
	c0,31.1,25.2,56.2,56.2,56.2h351c31.1,0,56.2-25.2,56.2-56.2v-351C1985.7,81.5,1960.5,56.2,1929.5,56.2z M1830.2,180.8
	c0,0-25.8,0-36,0c-12.7,0-15.3,5.2-15.3,18.3c0,10.9,0,31.7,0,31.7h51.3l-4.9,55.8h-46.3v166.5h-66.5V287.3h-34.5v-56.5h34.5
	c0,0,0-8.1,0-44.4c0-41.7,22.3-63.6,71.8-63.6c8.1,0,46,0,46,0L1830.2,180.8L1830.2,180.8z"/>
<path id="dribbble-square-rounded-icon" fill="#FFFFFF" d="M2426.2,312.5c12.7,33.3,22.2,67.6,28.1,102.6
	c-15.2,5.9-31.7,9.2-48.9,9.2c-31.6,0-60.5-10.9-83.7-28.9C2348.8,353,2383.3,325.4,2426.2,312.5z M2343.8,166.4
	c-35,17.8-61.3,50.3-70.9,89.2c46.1-0.3,86.1-5.4,119.5-15.2C2378.4,215.1,2362.2,190.5,2343.8,166.4z M2415.3,286
	c-2.9-6.6-6-13.2-9.2-19.7c-38.2,12-83.9,18.1-136.9,18.2c0,1.1-0.2,2.4-0.2,3.5c0,33.1,11.9,63.6,31.6,87.2
	C2330.4,330.3,2368.8,300.5,2415.3,286z M2488.5,180.1c-23.1-17.8-51.9-28.5-83.1-28.5c-11.6,0-22.7,1.6-33.4,4.3
	c18,24.2,34,49.2,48,74.8C2449,218.4,2472,201.5,2488.5,180.1z M2636,112.5v351c0,31.1-25.2,56.2-56.2,56.2h-351
	c-31,0-56.2-25.2-56.2-56.2v-351c0-31,25.2-56.2,56.2-56.2h351C2610.8,56.2,2636,81.5,2636,112.5z M2570.5,288
	c0-91.2-73.9-165.1-165.2-165.1s-165.1,73.9-165.1,165.1s73.9,165.1,165.1,165.1S2570.5,379.2,2570.5,288z M2433.2,256.2
	c3.7,7.6,7.2,15.4,10.6,23.1c29.7-5.1,62.3-4.8,97.8,1c-1.7-30.5-13.4-58.4-31.9-80.3C2490.4,223.8,2464.9,242.4,2433.2,256.2z
	 M2454.6,306.4c11.6,30.8,20.4,62.6,26.4,95c30.9-20.7,52.9-53.9,58.8-92.2C2508.9,303.8,2480.5,302.9,2454.6,306.4z"/>
<path id="behance-square-rounded-icon" fill="#FFFFFF" d="M3636.3,264.1h-48.9v-44.4h43.9c9.7,0,17.6,1,23.8,3.1
	c7.2,3,10.8,9.2,10.8,18.6c0,8.4-2.7,14.4-8.2,17.7C3652.2,262.5,3645,264.1,3636.3,264.1z M3820.7,273.4c-6.2-5.4-13.9-8-23.1-8
	c-10,0-17.8,2.8-23.3,8.6c-5.5,5.6-9,13.4-10.3,23.1h67.2C3830.4,286.6,3826.9,278.8,3820.7,273.4z M3657,300.9
	c-4.7-2.1-11.5-3.4-20.1-3.4h-49.6v53.8h48.9c8.8,0,15.5-1.2,20.4-3.6c8.8-4.4,13.3-12.7,13.3-25.2
	C3669.9,312.1,3665.6,304.9,3657,300.9z M3880.3,56.2c31.1,0,56.2,25.2,56.2,56.2v351c0,31.1-25.2,56.2-56.2,56.2h-351
	c-31.1,0-56.2-25.2-56.2-56.2v-351c0-31,25.2-56.2,56.2-56.2H3880.3z M3751.3,216.7h87.5v-20.4h-87.5V216.7z M3712.4,325.4
	c0-11.6-2.6-21.4-7.9-29.5c-5.3-8.1-13.1-14.1-23.3-17.8c6.8-3.5,11.9-7.3,15.4-11.5c6.2-7.4,9.3-17.3,9.3-29.7
	c0-11.9-3-22.2-9.2-30.7c-10.2-13.9-27.7-21.2-52.2-21.5h-97.4v201.5h90.8c10.2,0,19.7-0.9,28.5-2.7c8.8-1.8,16.3-5.2,22.7-10.1
	c5.7-4.3,10.5-9.6,14.3-15.9C3709.5,348.1,3712.4,337.3,3712.4,325.4z M3870.2,293.1c-1.8-11.7-5.7-21.9-11.9-30.8
	c-6.8-10-15.4-17.4-25.8-22.1c-10.3-4.6-22.1-7-35-7c-21.8,0-39.6,6.9-53.3,20.7c-13.7,13.7-20.5,33.5-20.5,59.4
	c0,27.6,7.5,47.5,22.7,59.6c15.2,12.3,32.6,18.3,52.5,18.3c24.1,0,42.8-7.2,56-21.7c8.6-9.1,13.4-18.1,14.4-26.9h-39.8
	c-2.4,4.4-4.9,7.8-8,10.2c-5.5,4.6-12.7,6.9-21.6,6.9c-8.3,0-15.5-1.9-21.5-5.6c-9.8-6-15-16.5-15.6-31.4h108.6
	C3871.8,309.8,3871.3,299.9,3870.2,293.1z"/>
<path id="twitter-3-icon" fill="#FFFFFF" d="M4530.7,56.2h-351c-31,0-56.2,25.2-56.2,56.2v351c0,31.1,25.2,56.2,56.2,56.2h351
	c31.1,0,56.2-25.2,56.2-56.2v-351C4587,81.5,4561.8,56.2,4530.7,56.2z M4485.6,233c4,89-62.3,188.1-179.8,188.1
	c-35.7,0-69-10.5-97-28.5c33.5,3.9,67-5.4,93.6-26.2c-27.7-0.6-51.1-18.8-59.1-43.9c9.9,1.9,19.7,1.4,28.6-1.1
	c-30.4-6.1-51.4-33.5-50.7-62.8c8.6,4.7,18.2,7.5,28.7,7.9c-28.1-18.8-36.1-56-19.6-84.4c31.2,38.2,77.7,63.5,130.4,66
	c-9.2-39.6,20.8-77.6,61.6-77.6c18.2,0,34.7,7.7,46.1,20c14.4-2.8,27.9-8.1,40.2-15.3c-4.7,14.7-14.7,27.1-27.8,35
	c12.8-1.6,25-4.9,36.3-10C4508.7,213,4498,224.1,4485.6,233z"/>
<path id="tumblr-square-rounded-icon" fill="#FFFFFF" d="M534.2,56.2H184.3c-31,0-56.1,25.1-56.1,56.1v349.9
	c0,31,25.1,56.1,56.1,56.1h349.9c31,0,56.1-25.1,56.1-56.1V112.3C590.2,81.4,565.1,56.2,534.2,56.2z M458.7,431.4
	c-13.8,6.5-26.3,11.1-37.5,13.7c-11.2,2.6-23.3,3.9-36.3,3.9c-14.8,0-27.8-1.9-39.2-5.6c-11.4-3.7-21-9-29.1-16
	c-8-6.9-13.6-14.3-16.7-22c-3.1-7.8-4.6-19-4.6-33.8V258.2h-35.4v-46.1c12.7-4.1,23.5-10,32.5-17.7c9-7.7,16.3-16.9,21.7-27.7
	c5.5-10.8,9.2-24.5,11.3-41.2h45.8v81.9H448v50.8h-76.8v82.9c0,18.7,1,30.8,3,36.1c2,5.3,5.7,9.6,11.1,12.7
	c7.1,4.3,15.3,6.4,24.5,6.4c16.4,0,32.7-5.3,48.9-16L458.7,431.4L458.7,431.4z"/>
</svg>
